<?xml version="1.0" encoding="UTF-8"?>
<svg width="32px" height="32px" viewBox="0 0 32 32" version="1.1" xmlns="http://www.w3.org/2000/svg">
  <path d="M16,2 C9.372,2 4,7.372 4,14 C4,18.992 12.092,27.476 14.756,30.144 C15.536,30.924 16.48,30.912 17.244,30.144 C19.908,27.476 28,18.992 28,14 C28,7.372 22.628,2 16,2 Z" fill="#10b981" />
  <circle cx="16" cy="14" r="6" fill="white" />
  <path d="M13,11 L19,11 L19,12 L17,14 L17,17 L19,17 L19,18 L13,18 L13,17 L15,17 L15,14 L13,12 L13,11 Z" fill="#10b981" />
</svg>